<svg width="24" height="24" viewBox="0 0 24 24" fill="none" xmlns="http://www.w3.org/2000/svg">
<path fill-rule="evenodd" clip-rule="evenodd" d="M17.5652 16.1671L24 22.6019L22.5998 24.0022L16.165 17.5674C14.4584 18.964 12.277 19.8019 9.89989 19.8019C4.43233 19.8019 0 15.3691 0 9.90096C0 4.43282 4.43233 0 9.89989 0C15.3674 0 19.7998 4.43282 19.7998 9.90096C19.7998 12.2785 18.9618 14.4603 17.5652 16.1671ZM9.89989 17.8217C14.2739 17.8217 17.8198 14.2755 17.8198 9.90096C17.8198 5.52644 14.2739 1.98019 9.89989 1.98019C5.52584 1.98019 1.97997 5.52644 1.97997 9.90096C1.97997 14.2755 5.52584 17.8217 9.89989 17.8217Z" fill="#808080"/>
</svg>
